<svg width="24" height="24" viewBox="0 0 24 24" fill="currentColor" xmlns="http://www.w3.org/2000/svg">
    <path d="M12.0003 0.363525C8.84011 0.363525 8.44352 0.377344 7.20235 0.433829C5.9636 0.490556 5.11805 0.686677 4.37819 0.974435C3.61288 1.27165 2.96369 1.66922 2.31692 2.31625C1.66967 2.96304 1.2721 3.61225 0.973929 4.37734C0.685453 5.11746 0.489096 5.96328 0.43334 7.20159C0.377826 8.4428 0.363281 8.83965 0.363281 11.9999C0.363281 15.1601 0.377342 15.5555 0.433582 16.7967C0.49055 18.0355 0.686666 18.8811 0.974172 19.621C1.27162 20.3863 1.66918 21.0355 2.31619 21.6823C2.96272 22.3296 3.61191 22.7281 4.37674 23.0253C5.11708 23.3131 5.96287 23.5092 7.20138 23.5659C8.44255 23.6224 8.8389 23.6363 11.9988 23.6363C15.1592 23.6363 15.5546 23.6224 16.7958 23.5659C18.0345 23.5092 18.881 23.3131 19.6214 23.0253C20.3864 22.7281 21.0347 22.3296 21.6812 21.6823C22.3284 21.0355 22.726 20.3863 23.0242 19.6212C23.3102 18.8811 23.5066 18.0353 23.5648 16.797C23.6205 15.5558 23.6351 15.1601 23.6351 11.9999C23.6351 8.83965 23.6205 8.44304 23.5648 7.20183C23.5066 5.96304 23.3102 5.11746 23.0242 4.37759C22.726 3.61225 22.3284 2.96304 21.6812 2.31625C21.0339 1.66898 20.3867 1.2714 19.6206 0.974435C18.8788 0.686677 18.0328 0.490556 16.7941 0.433829C15.5529 0.377344 15.1577 0.363525 11.9966 0.363525H12.0003ZM10.9564 2.46049C11.2662 2.46001 11.6119 2.46049 12.0003 2.46049C15.1071 2.46049 15.4753 2.47165 16.7022 2.5274C17.8367 2.57928 18.4524 2.76886 18.8626 2.92813C19.4056 3.13904 19.7928 3.39116 20.1998 3.79843C20.607 4.20571 20.8591 4.59359 21.0705 5.13662C21.2298 5.54631 21.4196 6.16207 21.4712 7.29662C21.527 8.52328 21.5391 8.89177 21.5391 11.9972C21.5391 15.1027 21.527 15.4712 21.4712 16.6978C21.4194 17.8324 21.2298 18.4481 21.0705 18.8578C20.8596 19.4009 20.607 19.7875 20.1998 20.1946C19.7925 20.6018 19.4059 20.8539 18.8626 21.0649C18.4529 21.2249 17.8367 21.4139 16.7022 21.4658C15.4756 21.5216 15.1071 21.5337 12.0003 21.5337C8.8932 21.5337 8.52497 21.5216 7.29834 21.4658C6.16383 21.4135 5.54809 21.2239 5.13768 21.0646C4.59467 20.8537 4.2068 20.6016 3.79954 20.1943C3.39228 19.787 3.14017 19.4001 2.92878 18.8569C2.76951 18.4472 2.5797 17.8314 2.52806 16.6969C2.47231 15.4702 2.46116 15.1017 2.46116 11.9943C2.46116 8.88692 2.47231 8.52037 2.52806 7.29371C2.57994 6.15916 2.76951 5.5434 2.92878 5.13322C3.13968 4.59019 3.39228 4.20231 3.79954 3.79504C4.2068 3.38777 4.59467 3.13565 5.13768 2.92425C5.54785 2.76425 6.16383 2.57516 7.29834 2.52304C8.37177 2.47456 8.78775 2.46001 10.9564 2.45759V2.46049ZM18.2115 4.39262C17.4406 4.39262 16.8151 5.01734 16.8151 5.78849C16.8151 6.5594 17.4406 7.18486 18.2115 7.18486C18.9824 7.18486 19.6078 6.5594 19.6078 5.78849C19.6078 5.01759 18.9824 4.39213 18.2115 4.39213V4.39262ZM12.0003 6.02413C8.70024 6.02413 6.02469 8.69977 6.02469 11.9999C6.02469 15.3 8.70024 17.9744 12.0003 17.9744C15.3003 17.9744 17.9749 15.3 17.9749 11.9999C17.9749 8.69977 15.3 6.02413 12 6.02413H12.0003ZM12.0003 8.1211C14.1423 8.1211 15.8789 9.85759 15.8789 11.9999C15.8789 14.1419 14.1423 15.8787 12.0003 15.8787C9.85802 15.8787 8.12159 14.1419 8.12159 11.9999C8.12159 9.85759 9.85802 8.1211 12.0003 8.1211V8.1211Z"/>
</svg>
