<svg width="24" height="18" viewBox="0 0 24 18" fill="currentColor" xmlns="http://www.w3.org/2000/svg">
    <path fill-rule="evenodd" clip-rule="evenodd" d="M21.3904 0.847253C22.4184 1.12402 23.2289 1.93456 23.5057 2.96257C24.0197 4.84065 23.9999 8.75496 23.9999 8.75496C23.9999 8.75496 23.9999 12.6495 23.5057 14.5276C23.2289 15.5556 22.4184 16.3661 21.3904 16.6429C19.5123 17.1371 11.9999 17.1371 11.9999 17.1371C11.9999 17.1371 4.50739 17.1371 2.60954 16.6231C1.58154 16.3464 0.771002 15.5358 0.494232 14.5078C0 12.6495 0 8.73519 0 8.73519C0 8.73519 0 4.84065 0.494232 2.96257C0.771002 1.93456 1.60131 1.10425 2.60954 0.827484C4.48763 0.333252 11.9999 0.333252 11.9999 0.333252C11.9999 0.333252 19.5123 0.333252 21.3904 0.847253ZM15.8549 8.59793L9.60785 12.1959V4.99992L15.8549 8.59793Z"/>
</svg>
